<svg width="481" height="668" viewBox="0 0 481 668" fill="none" xmlns="http://www.w3.org/2000/svg">
<g clip-path="url(#clip0_554_855)">
<mask id="mask0_554_855" style="mask-type:luminance" maskUnits="userSpaceOnUse" x="0" y="0" width="481" height="668">
<path d="M481 0L0 0L0 668H481L481 0Z" fill="white"/>
</mask>
<g mask="url(#mask0_554_855)">
<path d="M115.051 456.673H85.511L87.3767 316.757L87.0657 279.447H86.4438L84.2672 316.757L73.073 456.673H45.3985L34.2043 316.757L31.7167 279.447H31.0948L30.7839 316.757L32.6496 456.673H3.10938L3.10938 239.027H53.7941L57.5255 363.085L59.0803 397.598H59.7022L60.946 363.085L64.3664 239.027H115.051L115.051 456.673ZM167.247 385.161V456.673H136.152V385.161L113.764 239.027H145.481L150.145 313.959L151.389 345.052H152.01L153.254 313.959L157.918 239.027H189.635L167.247 385.161ZM279.184 424.337C279.184 435.324 275.97 443.821 269.545 449.833C263.119 455.636 254.93 458.539 244.98 458.539C235.029 458.539 226.841 455.636 220.414 449.833C213.988 443.821 210.775 435.324 210.775 424.337V380.186H241.87V425.892C241.87 429.001 242.907 430.556 244.98 430.556C247.052 430.556 248.089 429.001 248.089 425.892V389.825C248.089 383.191 246.328 376.661 242.803 370.236C239.486 363.602 235.755 356.762 231.609 349.715C226.633 341.631 221.866 333.236 217.305 324.531C212.952 315.618 210.775 306.186 210.775 296.237V271.363C210.775 260.585 213.988 252.19 220.414 246.178C227.048 240.167 235.34 237.161 245.29 237.161C255.241 237.161 263.326 240.167 269.545 246.178C275.97 251.981 279.184 260.376 279.184 271.363V305.875H248.089V269.808C248.089 266.699 247.052 265.144 244.98 265.144C242.907 265.144 241.87 266.699 241.87 269.808V296.237C241.87 302.87 243.529 309.502 246.845 316.136C250.37 322.561 254.308 329.299 258.661 336.346C263.636 344.43 268.301 352.929 272.654 361.841C277.007 370.547 279.184 379.875 279.184 389.825V424.337ZM348.628 335.413C348.628 346.4 345.829 354.379 340.232 359.354C334.635 364.122 326.033 366.505 314.423 366.505H311.314V456.673H280.219V239.027H314.734C326.135 239.027 334.635 241.514 340.232 246.489C345.829 251.257 348.628 259.132 348.628 270.119V335.413ZM317.533 271.674C317.533 268.564 316.495 267.01 314.423 267.01H311.314V338.522H314.423C316.495 338.522 317.533 336.967 317.533 333.858V271.674ZM418.664 424.337C418.664 435.324 415.45 443.821 409.025 449.833C402.599 455.636 394.41 458.539 384.46 458.539C374.509 458.539 366.32 455.636 359.895 449.833C353.469 443.821 350.255 435.324 350.255 424.337V271.363C350.255 260.585 353.469 252.19 359.895 246.178C366.529 240.167 374.82 237.161 384.771 237.161C394.721 237.161 402.806 240.167 409.025 246.178C415.45 251.981 418.664 260.376 418.664 271.363V424.337ZM387.569 269.808C387.569 266.699 386.532 265.144 384.46 265.144C382.388 265.144 381.35 266.699 381.35 269.808V425.892C381.35 429.001 382.388 430.556 384.46 430.556C386.532 430.556 387.569 429.001 387.569 425.892V269.808ZM480.927 267.01H465.38V456.673H434.285V267.01H418.737V239.027H480.927V267.01Z" fill="white"/>
<path d="M233.212 0C104.279 0 0 104.542 0 233.8C0 409.151 233.212 668 233.212 668C233.212 668 466.424 409.151 466.424 233.8C466.424 104.542 362.144 0 233.212 0ZM233.212 317.3C187.236 317.3 149.922 279.892 149.922 233.8C149.922 187.708 187.236 150.3 233.212 150.3C279.189 150.3 316.503 187.708 316.503 233.8C316.503 279.892 279.189 317.3 233.212 317.3Z" fill="black"/>
<g style="mix-blend-mode:exclusion">
<path d="M115.051 456.672H85.511L87.3767 316.756L87.0657 279.446H86.4438L84.2672 316.756L73.073 456.672H45.3985L34.2043 316.756L31.7167 279.446H31.0948L30.7839 316.756L32.6496 456.672H3.10938L3.10938 239.026H53.7941L57.5255 363.084L59.0803 397.597H59.7022L60.946 363.084L64.3664 239.026H115.051L115.051 456.672ZM167.247 385.16V456.672H136.152V385.16L113.764 239.026H145.481L150.145 313.958L151.389 345.051H152.01L153.254 313.958L157.918 239.026H189.635L167.247 385.16ZM279.184 424.336C279.184 435.323 275.97 443.82 269.545 449.832C263.119 455.635 254.93 458.538 244.98 458.538C235.029 458.538 226.841 455.635 220.414 449.832C213.988 443.82 210.775 435.323 210.775 424.336V380.185H241.87V425.891C241.87 429 242.907 430.555 244.98 430.555C247.052 430.555 248.089 429 248.089 425.891V389.824C248.089 383.19 246.328 376.66 242.803 370.235C239.486 363.601 235.755 356.761 231.609 349.714C226.633 341.63 221.866 333.235 217.305 324.53C212.952 315.617 210.775 306.185 210.775 296.236V271.362C210.775 260.584 213.988 252.189 220.414 246.177C227.048 240.166 235.34 237.16 245.29 237.16C255.241 237.16 263.326 240.166 269.545 246.177C275.97 251.98 279.184 260.375 279.184 271.362V305.874H248.089V269.807C248.089 266.698 247.052 265.143 244.98 265.143C242.907 265.143 241.87 266.698 241.87 269.807V296.236C241.87 302.869 243.529 309.501 246.845 316.135C250.37 322.56 254.308 329.298 258.661 336.345C263.636 344.429 268.301 352.928 272.654 361.84C277.007 370.546 279.184 379.874 279.184 389.824V424.336ZM348.628 335.412C348.628 346.399 345.829 354.378 340.232 359.353C334.635 364.121 326.033 366.504 314.423 366.504H311.314V456.672H280.219V239.026H314.734C326.135 239.026 334.635 241.513 340.232 246.488C345.829 251.256 348.628 259.131 348.628 270.118V335.412ZM317.533 271.673C317.533 268.563 316.495 267.009 314.423 267.009H311.314V338.521H314.423C316.495 338.521 317.533 336.966 317.533 333.857V271.673ZM418.664 424.336C418.664 435.323 415.45 443.82 409.025 449.832C402.599 455.635 394.41 458.538 384.46 458.538C374.509 458.538 366.32 455.635 359.895 449.832C353.469 443.82 350.255 435.323 350.255 424.336V271.362C350.255 260.584 353.469 252.189 359.895 246.177C366.529 240.166 374.82 237.16 384.771 237.16C394.721 237.16 402.806 240.166 409.025 246.177C415.45 251.98 418.664 260.375 418.664 271.362V424.336ZM387.569 269.807C387.569 266.698 386.532 265.143 384.46 265.143C382.388 265.143 381.35 266.698 381.35 269.807V425.891C381.35 429 382.388 430.555 384.46 430.555C386.532 430.555 387.569 429 387.569 425.891V269.807ZM480.927 267.009H465.38V456.672H434.285V267.009H418.737V239.026H480.927V267.009Z" fill="white"/>
</g>
<mask id="mask1_554_855" style="mask-type:luminance" maskUnits="userSpaceOnUse" x="81" y="153" width="440" height="410">
<path d="M520.466 153.156L346.049 424.5L81.0035 562.671L255.42 291.328L520.466 153.156Z" fill="white"/>
</mask>
<g mask="url(#mask1_554_855)">
<g opacity="0.5">
<path opacity="0.56" d="M188.855 501.016L187.023 503.865L214.788 489.719L221.258 486.385L221.221 486.443L214.657 489.923L186.257 505.057L184.426 507.906L224.643 487.791L226.156 485.436L190.988 503.518L191.026 503.46L200.206 498.577L226.848 484.36L228.511 481.773L202.524 494.972L193.511 499.593L193.548 499.535L202.692 494.711L229.221 480.668L230.679 478.4L188.855 501.016ZM206.831 486.573L198.682 490.821C197.041 491.677 195.601 492.582 194.364 493.536C193.14 494.471 192.284 495.316 191.799 496.072C191.313 496.828 191.389 497.194 192.028 497.17C192.68 497.127 193.826 496.677 195.468 495.821L219.036 483.535C220.678 482.679 222.117 481.774 223.354 480.82C224.591 479.866 225.453 479.011 225.938 478.255C226.412 477.518 226.323 477.172 225.671 477.215C225.032 477.239 223.892 477.679 222.25 478.535L209.645 485.106L207.721 488.1L196.816 493.785C195.8 494.315 195.397 494.415 195.609 494.085C195.821 493.756 196.435 493.326 197.451 492.796L205.542 488.579L206.831 486.573ZM220.902 480.571C221.919 480.041 222.321 479.941 222.109 480.271C221.897 480.6 221.283 481.03 220.267 481.56L211.473 486.144L212.108 485.156L220.902 480.571ZM220.059 474.666L218.77 476.672L225.805 473.004C227.447 472.148 228.88 471.253 230.104 470.318C231.341 469.364 232.197 468.519 232.67 467.782C233.156 467.026 233.079 466.66 232.44 466.684C231.801 466.708 230.661 467.148 229.019 468.004L200.526 482.857L199.237 484.863L201.875 483.488L201.838 483.546C200.838 484.132 199.983 484.694 199.274 485.231C198.604 485.748 198.15 486.19 197.914 486.559C197.602 487.043 197.776 487.197 198.435 487.022C199.132 486.825 200.263 486.32 201.827 485.505L209.976 481.256C210.992 480.727 211.877 480.239 212.63 479.795C213.396 479.332 214.101 478.861 214.747 478.383C215.443 477.865 216.131 477.3 216.81 476.688C217.489 476.076 218.257 475.348 219.112 474.503L227.671 470.04C228.688 469.511 229.09 469.41 228.878 469.74C228.666 470.069 228.052 470.499 227.036 471.029L220.059 474.666ZM215.535 476.367C214.716 477.116 213.982 477.692 213.333 478.095C212.736 478.458 211.891 478.924 210.796 479.495L203.585 483.254C202.569 483.784 202.167 483.884 202.378 483.554C202.59 483.225 203.204 482.795 204.22 482.266L215.535 476.367ZM232.123 463.115C233.139 462.585 233.542 462.485 233.33 462.814C233.13 463.124 232.523 463.544 231.506 464.074L203.072 478.897L201.783 480.903L235.2 463.482L236.49 461.476L234.438 462.546L234.475 462.488C236.24 461.4 237.34 460.518 237.776 459.839C238.1 459.335 237.893 459.192 237.156 459.408C236.432 459.606 235.21 460.153 233.49 461.049L224.696 465.634L223.388 467.669L232.123 463.115ZM222.541 462.132L214.392 466.381C212.75 467.237 211.311 468.142 210.074 469.096C208.849 470.03 207.994 470.876 207.508 471.632C207.023 472.388 207.099 472.754 207.738 472.73C208.39 472.687 209.536 472.237 211.178 471.381L234.746 459.095C236.388 458.239 237.827 457.334 239.064 456.38C240.301 455.426 241.162 454.571 241.648 453.815C242.122 453.078 242.033 452.732 241.381 452.775C240.742 452.799 239.602 453.239 237.96 454.094L225.355 460.665L223.431 463.66L212.526 469.345C211.51 469.874 211.107 469.975 211.319 469.645C211.531 469.316 212.145 468.886 213.161 468.356L221.252 464.138L222.541 462.132ZM236.612 456.131C237.628 455.601 238.031 455.501 237.819 455.831C237.607 456.16 236.993 456.59 235.977 457.119L227.183 461.704L227.818 460.715L236.612 456.131ZM249.103 443.066L247.814 445.072L253.5 442.108L254.79 440.102L249.103 443.066ZM210.057 463.421C208.885 464.033 207.947 464.541 207.246 464.945C206.505 465.37 205.902 465.761 205.438 466.119C204.987 466.458 204.635 466.783 204.382 467.095C204.13 467.407 203.873 467.767 203.611 468.174L203.219 468.784L206.853 466.889C207.078 466.54 207.306 466.286 207.539 466.126C207.733 465.986 208.103 465.774 208.65 465.489L246.641 445.684L247.93 443.678L210.057 463.421ZM222.013 454.585C220.997 455.114 220.595 455.215 220.807 454.885C221.019 454.556 221.633 454.126 222.649 453.596L251.083 438.773L252.373 436.767L218.955 454.188L217.665 456.194L219.717 455.124L219.68 455.183C217.903 456.289 216.797 457.182 216.361 457.86C216.049 458.345 216.256 458.488 216.98 458.291C217.717 458.074 218.946 457.518 220.665 456.621L249.158 441.768L250.448 439.762L222.013 454.585ZM228.294 444.753C226.652 445.609 225.213 446.514 223.976 447.468C222.739 448.422 221.884 449.268 221.41 450.004C220.937 450.741 221.02 451.097 221.659 451.073C222.31 451.03 223.457 450.58 225.098 449.725L231.958 446.149L233.247 444.143L226.446 447.688C225.43 448.218 225.022 448.328 225.221 448.018C225.433 447.688 226.047 447.259 227.063 446.729L233.102 443.581C234.118 443.051 234.969 442.698 235.654 442.521C236.379 442.323 237.085 442.155 237.772 442.016C238.526 441.893 239.378 441.701 240.326 441.438C241.314 441.156 242.608 440.596 244.211 439.761L248.667 437.438C250.308 436.583 251.748 435.678 252.985 434.723C254.222 433.769 255.077 432.924 255.55 432.187C256.024 431.451 255.935 431.104 255.283 431.147C254.644 431.171 253.504 431.611 251.862 432.467L246.586 435.218L245.296 437.224L250.514 434.503C251.53 433.974 251.933 433.874 251.721 434.203C251.521 434.513 250.914 434.933 249.897 435.463L245.5 437.755C244.484 438.285 243.608 438.658 242.871 438.875C242.146 439.072 241.446 439.231 240.772 439.35C240.005 439.492 239.127 439.705 238.14 439.988C237.165 440.251 235.915 440.78 234.391 441.575L228.294 444.753ZM265.896 422.399L259.447 425.761L259.97 424.947L256.277 426.872L255.754 427.686L231.071 440.554C230.524 440.839 230.172 441.003 230.014 441.047C229.868 441.071 229.926 440.88 230.188 440.473L226.553 442.368L226.086 443.095C225.811 443.521 225.626 443.85 225.53 444.08C225.434 444.311 225.466 444.442 225.628 444.474C225.841 444.466 226.222 444.338 226.771 444.091C227.32 443.843 228.102 443.455 229.118 442.925L254.445 429.722L254.146 430.187L257.84 428.261L258.139 427.796L264.588 424.434L265.896 422.399ZM238.11 429.482C236.468 430.338 235.029 431.243 233.792 432.197C232.555 433.151 231.7 433.997 231.226 434.733C230.753 435.47 230.836 435.826 231.475 435.802C232.126 435.759 233.273 435.31 234.914 434.454L241.774 430.878L243.063 428.872L236.262 432.417C235.246 432.947 234.838 433.057 235.037 432.747C235.249 432.417 235.863 431.988 236.879 431.458L242.918 428.31C243.934 427.78 244.785 427.427 245.47 427.25C246.195 427.052 246.901 426.884 247.588 426.745C248.342 426.622 249.194 426.43 250.142 426.167C251.13 425.885 252.424 425.326 254.027 424.49L258.483 422.167C260.124 421.312 261.564 420.407 262.801 419.452C264.038 418.498 264.893 417.653 265.366 416.916C265.84 416.18 265.751 415.833 265.099 415.877C264.46 415.9 263.32 416.34 261.678 417.196L256.402 419.947L255.112 421.953L260.33 419.233C261.346 418.703 261.749 418.603 261.537 418.932C261.337 419.242 260.73 419.662 259.713 420.192L255.316 422.484C254.3 423.014 253.424 423.387 252.687 423.604C251.962 423.801 251.262 423.96 250.588 424.079C249.821 424.222 248.943 424.434 247.956 424.717C246.981 424.98 245.732 425.509 244.207 426.304L238.11 429.482ZM275.712 407.128L269.263 410.49L269.786 409.676L266.093 411.601L265.57 412.416L240.887 425.283C240.34 425.568 239.988 425.732 239.83 425.776C239.684 425.8 239.742 425.609 240.004 425.202L236.369 427.097L235.902 427.824C235.627 428.25 235.442 428.579 235.346 428.809C235.25 429.04 235.282 429.171 235.444 429.203C235.657 429.195 236.038 429.067 236.587 428.82C237.136 428.572 237.918 428.184 238.934 427.654L264.261 414.451L263.962 414.916L267.656 412.99L267.955 412.525L274.404 409.163L275.712 407.128ZM277.73 404.413L279.02 402.407L273.333 405.371L272.044 407.377L277.73 404.413ZM270.871 407.989L272.161 405.983L238.743 423.404L237.453 425.41L270.871 407.989ZM282.787 399.154L284.077 397.148L241.278 419.459L239.989 421.465L282.787 399.154ZM285.323 395.208L286.613 393.202L243.815 415.513L242.525 417.519L285.323 395.208ZM285.338 392.577L286.628 390.571L280.941 393.536L279.651 395.542L285.338 392.577ZM278.479 396.153L279.768 394.147L246.351 411.568L245.061 413.574L278.479 396.153ZM277.956 391.812C278.972 391.282 279.374 391.182 279.163 391.511C278.951 391.841 278.337 392.27 277.321 392.8L248.886 407.623L247.597 409.629L281.014 392.208L282.304 390.202L280.252 391.272L280.289 391.214C282.054 390.126 283.154 389.244 283.59 388.565C283.902 388.081 283.695 387.937 282.97 388.134C282.246 388.332 281.024 388.879 279.304 389.775L250.811 404.629L249.522 406.635L277.956 391.812ZM250.826 399.997C249.184 400.852 247.745 401.757 246.508 402.712C245.271 403.666 244.416 404.511 243.942 405.248C243.456 406.003 243.533 406.369 244.172 406.346C244.785 406.323 245.892 405.894 247.494 405.058L250.484 403.5L251.774 401.494L248.96 402.961C247.944 403.49 247.541 403.59 247.753 403.261C247.965 402.931 248.579 402.502 249.595 401.972L256.103 398.58L256.065 398.638C255.209 399.162 254.485 399.661 253.893 400.138C253.313 400.594 252.912 400.997 252.687 401.346C252.376 401.83 252.582 401.974 253.307 401.777C254.044 401.56 255.272 401.004 256.992 400.107L280.619 387.79C282.339 386.894 283.729 386.085 284.79 385.364C285.863 384.624 286.562 384.002 286.886 383.499C287.098 383.169 287.063 383 286.783 382.992C286.515 382.964 286.028 383.095 285.321 383.387L285.358 383.329L287.469 382.228L288.758 380.222L250.826 399.997ZM258.34 398.07C257.324 398.6 256.922 398.7 257.134 398.371C257.345 398.041 257.959 397.612 258.976 397.082L282.485 384.826C283.501 384.296 283.904 384.196 283.692 384.526C283.48 384.855 282.866 385.285 281.85 385.815L258.34 398.07ZM299.114 371.146L300.403 369.14L294.716 372.105L293.427 374.111L299.114 371.146ZM292.254 374.722L293.544 372.716L260.126 390.137L258.837 392.143L292.254 374.722ZM263.297 385.204L265.349 384.134L265.312 384.192C263.548 385.279 262.447 386.162 262.011 386.841C261.7 387.325 261.906 387.469 262.631 387.271C263.355 387.074 264.578 386.527 266.297 385.631L289.866 373.344C291.585 372.448 292.982 371.63 294.055 370.89C295.129 370.15 295.821 369.537 296.133 369.053C296.581 368.355 296.059 368.318 294.567 368.941L294.663 368.852L306.096 362.892L307.385 360.886L264.587 383.198L263.297 385.204ZM267.645 383.594C266.629 384.124 266.227 384.224 266.439 383.895C266.651 383.565 267.265 383.135 268.281 382.606L291.732 370.38C292.748 369.851 293.15 369.751 292.938 370.08C292.727 370.409 292.113 370.839 291.096 371.369L267.645 383.594ZM282.131 369.428L273.982 373.676C272.34 374.532 270.901 375.437 269.664 376.391C268.439 377.326 267.584 378.171 267.098 378.927C266.612 379.683 266.689 380.049 267.328 380.025C267.979 379.982 269.126 379.532 270.768 378.676L294.336 366.39C295.977 365.534 297.417 364.629 298.654 363.675C299.891 362.721 300.752 361.866 301.238 361.11C301.712 360.373 301.622 360.027 300.971 360.07C300.332 360.094 299.192 360.534 297.55 361.389L284.945 367.961L283.02 370.955L272.116 376.64C271.099 377.17 270.697 377.27 270.909 376.94C271.121 376.611 271.735 376.181 272.751 375.651L280.842 371.434L282.131 369.428ZM296.202 363.426C297.218 362.896 297.62 362.796 297.409 363.126C297.197 363.455 296.583 363.885 295.567 364.414L286.772 368.999L287.408 368.011L296.202 363.426ZM293.061 361.097L291.771 363.103L298.806 359.435C300.448 358.579 301.881 357.684 303.106 356.749C304.343 355.795 305.198 354.95 305.671 354.213C306.157 353.457 306.081 353.091 305.442 353.115C304.803 353.139 303.662 353.579 302.021 354.434L273.528 369.288L272.238 371.294L274.876 369.919L274.839 369.977C273.839 370.563 272.984 371.124 272.275 371.662C271.605 372.179 271.151 372.621 270.915 372.989C270.603 373.474 270.777 373.628 271.436 373.452C272.134 373.256 273.264 372.75 274.828 371.935L282.977 367.687C283.993 367.157 284.878 366.67 285.631 366.226C286.397 365.762 287.103 365.291 287.748 364.813C288.444 364.295 289.132 363.731 289.811 363.119C290.491 362.507 291.258 361.779 292.113 360.933L300.673 356.471C301.689 355.941 302.091 355.841 301.879 356.171C301.667 356.5 301.053 356.93 300.037 357.459L293.061 361.097ZM288.537 362.798C287.717 363.547 286.983 364.123 286.334 364.526C285.737 364.888 284.892 365.355 283.797 365.926L276.586 369.685C275.57 370.215 275.168 370.315 275.38 369.985C275.591 369.656 276.205 369.226 277.222 368.696L288.537 362.798ZM306.956 348.03L306.657 348.495L310.35 346.57L310.649 346.105L314.402 344.149C315.691 343.476 316.72 342.927 317.488 342.501C318.307 342.036 318.936 341.643 319.375 341.324C319.865 340.965 320.237 340.63 320.489 340.318C320.793 339.966 321.095 339.557 321.394 339.092L321.768 338.511L318.133 340.406C317.921 340.735 317.699 340.98 317.466 341.14C317.233 341.3 316.785 341.553 316.12 341.9L311.958 344.07L312.387 343.401L308.694 345.326L308.264 345.995L278.54 361.491L277.232 363.526L306.956 348.03ZM310.397 341.343C311.413 340.813 311.815 340.713 311.603 341.043C311.404 341.353 310.796 341.773 309.78 342.302L281.346 357.126L280.056 359.132L313.474 341.711L314.763 339.705L312.711 340.774L312.749 340.716C314.513 339.629 315.613 338.746 316.05 338.068C316.373 337.564 316.167 337.42 315.43 337.637C314.705 337.834 313.483 338.381 311.763 339.277L302.969 343.862L301.661 345.897L310.397 341.343ZM292.666 344.609C291.024 345.465 289.585 346.37 288.348 347.324C287.123 348.259 286.274 349.094 285.801 349.831C285.315 350.587 285.392 350.953 286.031 350.929C286.67 350.905 287.81 350.465 289.452 349.609L313.02 337.323C314.661 336.467 316.101 335.562 317.338 334.608C318.575 333.654 319.436 332.799 319.922 332.043C320.396 331.306 320.306 330.96 319.655 331.003C319.016 331.027 317.876 331.467 316.234 332.322L292.666 344.609ZM314.886 334.359C315.902 333.829 316.304 333.729 316.093 334.059C315.881 334.388 315.267 334.818 314.251 335.347L290.8 347.573C289.783 348.102 289.381 348.203 289.593 347.873C289.805 347.544 290.419 347.114 291.435 346.584L314.886 334.359ZM319.356 327.405C320.372 326.875 320.775 326.775 320.563 327.104C320.351 327.434 319.737 327.863 318.721 328.393L290.286 343.216L288.997 345.222L322.415 327.801L323.704 325.795L321.652 326.865L321.69 326.807C323.454 325.719 324.554 324.837 324.99 324.158C325.514 323.344 324.652 323.471 322.407 324.538L322.444 324.48C323.615 323.831 324.575 323.228 325.323 322.67C326.123 322.073 326.654 321.571 326.915 321.164C327.239 320.66 327.033 320.516 326.296 320.733C325.571 320.93 324.349 321.477 322.629 322.374L294.136 337.227L292.847 339.233L321.281 324.41C322.297 323.88 322.699 323.78 322.488 324.11C322.276 324.439 321.662 324.869 320.646 325.399L292.211 340.222L290.922 342.228L319.356 327.405ZM329.765 313.515L328.401 315.638L334.264 312.581L339.115 309.705L339.806 308.629L334.974 311.477L335.628 310.459L329.765 313.515ZM331.541 310.754L330.176 312.876L336.039 309.82L340.89 306.943L341.581 305.867L336.749 308.715L337.403 307.697L331.541 310.754ZM310.422 316.985C308.78 317.841 307.335 318.756 306.085 319.729C304.836 320.703 303.956 321.587 303.445 322.381C302.934 323.176 302.998 323.561 303.637 323.538C304.276 323.514 305.417 323.074 307.058 322.218L316.556 317.267L317.92 315.145L308.657 319.974C307.602 320.524 307.18 320.634 307.392 320.305C307.591 319.994 308.218 319.564 309.274 319.014L316.719 315.133C318.244 314.338 319.538 313.76 320.602 313.399C321.665 313.037 322.704 312.715 323.718 312.431C324.825 312.125 326.028 311.749 327.328 311.303C328.667 310.837 330.373 310.064 332.444 308.984L338.248 305.959C339.89 305.103 341.335 304.188 342.585 303.215C343.834 302.241 344.714 301.357 345.225 300.562C345.724 299.787 345.653 299.411 345.014 299.435C344.388 299.44 343.253 299.87 341.612 300.725L333.932 304.729L332.549 306.881L339.995 302.999C341.05 302.449 341.478 302.329 341.278 302.639C341.067 302.969 340.433 303.408 339.378 303.958L333.808 306.862C332.245 307.677 330.931 308.265 329.867 308.626C328.804 308.988 327.765 309.31 326.751 309.594C325.644 309.9 324.421 310.286 323.082 310.752C321.795 311.179 320.135 311.922 318.102 312.981L310.422 316.985ZM341.403 298.26L339.351 299.33L339.389 299.272C341.153 298.185 342.253 297.302 342.689 296.623C343.013 296.12 342.807 295.976 342.07 296.193C341.345 296.39 340.123 296.937 338.403 297.833L314.835 310.12C313.115 311.016 311.719 311.835 310.645 312.574C309.584 313.295 308.898 313.898 308.587 314.382C308.363 314.731 308.384 314.919 308.652 314.947C308.933 314.956 309.427 314.814 310.133 314.523L310.096 314.581L298.605 320.572L297.316 322.578L340.114 300.266L341.403 298.26ZM337.055 299.87C338.071 299.34 338.474 299.24 338.262 299.569C338.05 299.899 337.436 300.329 336.42 300.858L312.969 313.084C311.953 313.613 311.55 313.714 311.762 313.384C311.974 313.055 312.588 312.625 313.604 312.095L337.055 299.87ZM319.306 303.165C317.664 304.021 316.225 304.925 314.988 305.88C313.763 306.814 312.914 307.65 312.441 308.387C311.955 309.142 312.031 309.508 312.67 309.485C313.31 309.461 314.45 309.021 316.091 308.165L339.66 295.879C341.301 295.023 342.741 294.118 343.978 293.164C345.215 292.21 346.076 291.355 346.562 290.599C347.035 289.862 346.946 289.516 346.295 289.559C345.656 289.583 344.515 290.023 342.874 290.878L319.306 303.165ZM341.526 292.915C342.542 292.385 342.944 292.285 342.732 292.614C342.521 292.944 341.907 293.374 340.89 293.903L317.439 306.129C316.423 306.658 316.021 306.759 316.233 306.429C316.445 306.1 317.059 305.67 318.075 305.14L341.526 292.915ZM356.962 280.727L350.513 284.089L351.036 283.275L347.342 285.2L346.819 286.014L322.137 298.881C321.59 299.167 321.237 299.331 321.079 299.375C320.933 299.399 320.991 299.208 321.253 298.801L317.618 300.696L317.151 301.423C316.877 301.849 316.692 302.178 316.595 302.408C316.499 302.639 316.532 302.77 316.693 302.802C316.906 302.794 317.287 302.666 317.836 302.419C318.385 302.171 319.168 301.782 320.184 301.253L345.511 288.049L345.212 288.515L348.905 286.589L349.204 286.124L355.653 282.762L356.962 280.727ZM349.062 281.191C350.078 280.662 350.48 280.562 350.268 280.891C350.056 281.22 349.442 281.65 348.426 282.18L319.992 297.003L318.702 299.009L352.12 281.588L353.41 279.582L351.358 280.652L351.395 280.594C353.159 279.506 354.26 278.623 354.696 277.945C355.219 277.131 354.358 277.258 352.112 278.325L352.15 278.267C353.321 277.618 354.28 277.015 355.028 276.457C355.828 275.86 356.359 275.358 356.621 274.951C356.944 274.447 356.738 274.303 356.001 274.52C355.276 274.717 354.054 275.264 352.334 276.16L323.841 291.014L322.552 293.02L350.986 278.197C352.003 277.667 352.405 277.567 352.193 277.897C351.981 278.226 351.367 278.656 350.351 279.185L321.917 294.009L320.627 296.015L349.062 281.191ZM347.818 275.91L346.528 277.916L353.564 274.248C355.205 273.392 356.638 272.497 357.863 271.562C359.1 270.608 359.955 269.763 360.428 269.026C360.914 268.271 360.838 267.904 360.199 267.928C359.56 267.952 358.419 268.392 356.778 269.248L328.285 284.102L326.995 286.107L329.634 284.732L329.596 284.79C328.596 285.376 327.741 285.938 327.032 286.475C326.362 286.992 325.909 287.434 325.672 287.803C325.36 288.287 325.534 288.442 326.193 288.266C326.891 288.069 328.021 287.564 329.585 286.749L337.734 282.5C338.75 281.971 339.635 281.484 340.388 281.039C341.154 280.576 341.86 280.105 342.505 279.627C343.202 279.109 343.89 278.544 344.569 277.932C345.248 277.32 346.015 276.592 346.87 275.747L355.43 271.284C356.446 270.755 356.848 270.654 356.636 270.984C356.425 271.313 355.811 271.743 354.794 272.273L347.818 275.91ZM343.294 277.611C342.474 278.36 341.74 278.936 341.092 279.339C340.495 279.702 339.649 280.168 338.555 280.739L331.343 284.498C330.327 285.028 329.925 285.128 330.137 284.799C330.349 284.469 330.963 284.039 331.979 283.51L343.294 277.611ZM364.248 262.72L362.196 263.79L362.234 263.732C363.998 262.644 365.098 261.761 365.534 261.083C365.858 260.579 365.652 260.435 364.915 260.652C364.19 260.849 362.968 261.396 361.248 262.293L337.68 274.579C335.96 275.476 334.564 276.294 333.49 277.034C332.43 277.755 331.743 278.357 331.432 278.842C331.208 279.191 331.23 279.379 331.498 279.407C331.778 279.415 332.272 279.274 332.979 278.983L332.941 279.041L321.45 285.031L320.161 287.037L362.959 264.726L364.248 262.72ZM359.9 264.329C360.917 263.8 361.319 263.699 361.107 264.029C360.895 264.358 360.281 264.788 359.265 265.318L335.814 277.543C334.798 278.073 334.396 278.173 334.607 277.844C334.819 277.514 335.433 277.084 336.449 276.555L359.9 264.329ZM376.699 251.233L378.064 249.111L372.201 252.167L367.35 255.044L366.659 256.12L371.491 253.272L370.837 254.29L376.699 251.233ZM374.924 253.995L376.288 251.873L370.426 254.929L365.575 257.806L364.883 258.882L369.715 256.034L369.061 257.052L374.924 253.995ZM363.382 251.697L362.092 253.703L369.128 250.035C370.769 249.179 372.202 248.284 373.427 247.349C374.664 246.395 375.519 245.55 375.992 244.813C376.478 244.057 376.402 243.691 375.763 243.715C375.124 243.739 373.983 244.179 372.342 245.035L343.849 259.888L342.559 261.894L345.198 260.519L345.16 260.577C344.16 261.163 343.305 261.725 342.596 262.262C341.926 262.779 341.473 263.221 341.236 263.589C340.924 264.074 341.098 264.228 341.757 264.052C342.455 263.856 343.585 263.35 345.149 262.535L353.298 258.287C354.314 257.757 355.199 257.27 355.952 256.826C356.718 256.362 357.424 255.892 358.069 255.413C358.766 254.896 359.454 254.331 360.133 253.719C360.812 253.107 361.579 252.379 362.434 251.533L370.994 247.071C372.01 246.541 372.412 246.441 372.2 246.771C371.989 247.1 371.375 247.53 370.358 248.06L363.382 251.697ZM358.858 253.398C358.038 254.147 357.304 254.723 356.656 255.126C356.059 255.489 355.213 255.955 354.119 256.526L346.907 260.285C345.891 260.815 345.489 260.915 345.701 260.585C345.912 260.256 346.526 259.826 347.543 259.296L358.858 253.398ZM375.464 240.117C376.48 239.587 376.882 239.487 376.671 239.816C376.459 240.146 375.845 240.576 374.829 241.105L346.394 255.928L345.105 257.934L378.522 240.513L379.812 238.507L377.76 239.577L377.797 239.519C379.562 238.432 380.662 237.549 381.098 236.87C381.41 236.386 381.203 236.242 380.478 236.44C379.754 236.637 378.532 237.184 376.812 238.08L348.319 252.934L347.03 254.94L375.464 240.117ZM351.5 247.985L353.552 246.915L353.515 246.973C351.75 248.061 350.65 248.944 350.214 249.622C349.903 250.107 350.109 250.25 350.834 250.053C351.558 249.856 352.78 249.309 354.5 248.412L378.068 236.126C379.788 235.229 381.185 234.411 382.258 233.671C383.331 232.931 384.024 232.319 384.335 231.834C384.784 231.136 384.262 231.099 382.77 231.722L382.866 231.634L394.298 225.674L395.588 223.668L352.79 245.979L351.5 247.985ZM355.848 246.376C354.832 246.905 354.43 247.005 354.642 246.676C354.853 246.346 355.467 245.917 356.484 245.387L379.935 233.162C380.951 232.632 381.353 232.532 381.141 232.861C380.929 233.191 380.315 233.621 379.299 234.15L355.848 246.376ZM164.355 513.053L130.096 531.782L128.358 534.486L149.791 523.641L155.969 520.46L155.912 520.547L149.661 523.845L127.611 535.649L125.873 538.353L158.431 522.269L159.814 520.118L138.871 530.746L131.716 534.418L131.753 534.359L139.058 530.455L160.673 518.78L162.131 516.513L141.282 526.995L134.164 530.609L134.201 530.551L141.468 526.704L162.972 515.205L164.355 513.053ZM148.24 517.079L140.091 521.327C138.449 522.183 137.01 523.088 135.773 524.042C134.549 524.977 133.693 525.822 133.207 526.578C132.722 527.334 132.798 527.7 133.437 527.676C134.089 527.633 135.235 527.184 136.877 526.328L160.445 514.041C162.087 513.186 163.526 512.281 164.763 511.327C166 510.372 166.861 509.517 167.347 508.761C167.821 508.025 167.732 507.678 167.08 507.722C166.441 507.745 165.301 508.185 163.659 509.041L151.054 515.612L149.13 518.607L138.225 524.291C137.209 524.821 136.806 524.921 137.018 524.592C137.23 524.262 137.844 523.833 138.86 523.303L146.951 519.085L148.24 517.079ZM162.311 511.078C163.327 510.548 163.73 510.448 163.518 510.777C163.306 511.107 162.692 511.536 161.676 512.066L152.882 516.65L153.517 515.662L162.311 511.078ZM173.428 498.937L171.376 500.007L171.414 499.949C173.178 498.862 174.278 497.979 174.714 497.3C175.038 496.796 174.832 496.653 174.095 496.869C173.37 497.067 172.148 497.614 170.428 498.51L146.86 510.797C145.14 511.693 143.744 512.511 142.67 513.251C141.61 513.972 140.923 514.574 140.612 515.059C140.388 515.408 140.41 515.596 140.678 515.624C140.958 515.633 141.452 515.491 142.159 515.2L142.121 515.258L130.63 521.248L129.341 523.254L172.139 500.943L173.428 498.937ZM169.08 500.547C170.097 500.017 170.499 499.917 170.287 500.246C170.075 500.576 169.461 501.005 168.445 501.535L144.994 513.76C143.978 514.29 143.576 514.39 143.787 514.061C143.999 513.731 144.613 513.302 145.629 512.772L169.08 500.547ZM165.939 498.218L164.649 500.224L171.685 496.556C173.326 495.7 174.759 494.805 175.984 493.87C177.221 492.916 178.076 492.071 178.55 491.334C179.035 490.578 178.959 490.212 178.32 490.236C177.681 490.26 176.54 490.7 174.899 491.555L146.406 506.409L145.116 508.415L147.755 507.04L147.717 507.098C146.717 507.684 145.862 508.245 145.153 508.783C144.483 509.3 144.03 509.742 143.793 510.11C143.481 510.595 143.655 510.749 144.314 510.573C145.012 510.377 146.143 509.871 147.706 509.056L155.855 504.808C156.871 504.278 157.756 503.791 158.51 503.347C159.275 502.883 159.981 502.412 160.626 501.934C161.323 501.416 162.011 500.852 162.69 500.24C163.369 499.628 164.136 498.9 164.991 498.054L173.551 493.592C174.567 493.062 174.969 492.962 174.757 493.292C174.546 493.621 173.932 494.051 172.915 494.58L165.939 498.218ZM161.415 499.919C160.595 500.668 159.861 501.244 159.213 501.647C158.616 502.009 157.77 502.476 156.676 503.046L149.464 506.806C148.448 507.336 148.046 507.436 148.258 507.106C148.47 506.777 149.084 506.347 150.1 505.817L161.415 499.919ZM155.745 496.974C154.103 497.83 152.664 498.735 151.427 499.689C150.19 500.643 149.335 501.489 148.861 502.225C148.388 502.962 148.471 503.318 149.11 503.294C149.761 503.251 150.908 502.802 152.549 501.946L159.409 498.37L160.698 496.364L153.897 499.909C152.881 500.439 152.473 500.549 152.672 500.239C152.884 499.909 153.498 499.48 154.514 498.95L160.553 495.802C161.569 495.272 162.42 494.919 163.105 494.742C163.83 494.545 164.536 494.376 165.223 494.237C165.977 494.114 166.829 493.922 167.777 493.659C168.765 493.377 170.059 492.818 171.662 491.982L176.118 489.659C177.759 488.804 179.198 487.899 180.436 486.944C181.673 485.99 182.528 485.145 183.001 484.408C183.475 483.672 183.386 483.325 182.734 483.369C182.095 483.392 180.955 483.832 179.313 484.688L174.037 487.439L172.747 489.445L177.965 486.725C178.981 486.195 179.384 486.095 179.172 486.424C178.972 486.734 178.365 487.154 177.348 487.684L172.951 489.976C171.935 490.506 171.059 490.879 170.322 491.096C169.597 491.293 168.897 491.452 168.223 491.571C167.456 491.714 166.578 491.926 165.591 492.209C164.616 492.472 163.366 493.001 161.842 493.796L155.745 496.974ZM160.106 490.19C158.464 491.046 157.025 491.951 155.788 492.905C154.551 493.859 153.696 494.704 153.222 495.441C152.749 496.177 152.832 496.534 153.471 496.51C154.122 496.467 155.269 496.017 156.91 495.161L163.77 491.586L165.059 489.58L158.258 493.125C157.242 493.655 156.834 493.764 157.033 493.454C157.245 493.125 157.859 492.695 158.875 492.166L164.914 489.017C165.93 488.488 166.781 488.134 167.466 487.957C168.191 487.76 168.897 487.592 169.584 487.453C170.338 487.33 171.19 487.138 172.138 486.875C173.125 486.592 174.42 486.033 176.023 485.198L180.479 482.875C182.12 482.019 183.559 481.114 184.796 480.16C186.033 479.206 186.889 478.361 187.362 477.624C187.836 476.888 187.746 476.541 187.095 476.584C186.456 476.608 185.316 477.048 183.674 477.904L178.398 480.654L177.108 482.66L182.326 479.94C183.342 479.41 183.744 479.31 183.533 479.64C183.333 479.95 182.726 480.37 181.709 480.9L177.312 483.192C176.296 483.722 175.419 484.095 174.682 484.312C173.958 484.509 173.258 484.667 172.584 484.787C171.817 484.929 170.939 485.142 169.952 485.424C168.977 485.688 167.727 486.217 166.203 487.011L160.106 490.19ZM198.96 466.313L200.249 464.307L194.562 467.272L193.273 469.278L198.96 466.313ZM192.1 469.889L193.39 467.883L159.972 485.304L158.683 487.31L192.1 469.889ZM202.543 460.314L196.094 463.676L196.617 462.862L192.924 464.788L192.4 465.602L167.718 478.469C167.171 478.754 166.818 478.919 166.66 478.962C166.515 478.987 166.573 478.795 166.834 478.388L163.199 480.283L162.732 481.01C162.458 481.436 162.273 481.765 162.177 481.996C162.08 482.226 162.113 482.357 162.275 482.389C162.488 482.381 162.868 482.253 163.417 482.006C163.966 481.758 164.749 481.37 165.765 480.84L191.092 467.637L190.793 468.102L194.487 466.176L194.786 465.711L201.235 462.349L202.543 460.314ZM174.812 467.311C173.171 468.166 171.732 469.071 170.495 470.026C169.27 470.96 168.421 471.796 167.948 472.533C167.462 473.288 167.538 473.654 168.177 473.631C168.816 473.607 169.957 473.167 171.598 472.311L195.166 460.025C196.808 459.169 198.247 458.264 199.484 457.31C200.721 456.356 201.583 455.501 202.069 454.745C202.542 454.008 202.453 453.662 201.802 453.705C201.163 453.729 200.022 454.168 198.381 455.024L174.812 467.311ZM197.033 457.061C198.049 456.531 198.451 456.431 198.239 456.76C198.027 457.09 197.413 457.52 196.397 458.049L172.946 470.275C171.93 470.804 171.528 470.904 171.74 470.575C171.951 470.246 172.565 469.816 173.582 469.286L197.033 457.061ZM201.018 452.195L200.719 452.66L204.412 450.735L204.711 450.27L208.463 448.314C209.753 447.641 210.782 447.092 211.549 446.666C212.369 446.201 212.998 445.808 213.437 445.489C213.927 445.131 214.299 444.795 214.551 444.483C214.855 444.131 215.157 443.723 215.456 443.257L215.83 442.676L212.195 444.571C211.983 444.9 211.761 445.145 211.528 445.305C211.295 445.465 210.846 445.718 210.182 446.065L206.019 448.235L206.449 447.566L202.756 449.492L202.326 450.16L172.602 465.656L171.294 467.691L201.018 452.195ZM203.992 447.569L203.693 448.034L207.386 446.108L207.685 445.643L211.437 443.687C212.727 443.015 213.756 442.466 214.523 442.04C215.343 441.574 215.972 441.182 216.411 440.863C216.901 440.504 217.273 440.168 217.525 439.856C217.829 439.504 218.131 439.096 218.43 438.631L218.804 438.049L215.169 439.944C214.957 440.274 214.735 440.518 214.502 440.678C214.269 440.838 213.82 441.092 213.156 441.438L208.993 443.608L209.423 442.939L205.73 444.865L205.3 445.533L175.576 461.029L174.268 463.064L203.992 447.569ZM202.138 441.902L200.848 443.908L207.884 440.24C209.525 439.385 210.958 438.489 212.183 437.554C213.42 436.6 214.275 435.755 214.749 435.018C215.235 434.263 215.158 433.897 214.519 433.92C213.88 433.944 212.74 434.384 211.098 435.24L182.605 450.094L181.316 452.1L183.954 450.724L183.916 450.782C182.916 451.368 182.061 451.93 181.352 452.467C180.682 452.984 180.229 453.426 179.992 453.795C179.681 454.279 179.854 454.434 180.513 454.258C181.211 454.061 182.342 453.556 183.905 452.741L192.054 448.492C193.07 447.963 193.955 447.476 194.709 447.031C195.474 446.568 196.18 446.097 196.825 445.619C197.522 445.101 198.21 444.536 198.889 443.924C199.568 443.312 200.335 442.584 201.19 441.739L209.75 437.276C210.766 436.747 211.168 436.646 210.957 436.976C210.745 437.305 210.131 437.735 209.115 438.265L202.138 441.902ZM197.614 443.603C196.794 444.352 196.06 444.928 195.412 445.331C194.815 445.694 193.969 446.16 192.875 446.731L185.664 450.49C184.647 451.02 184.245 451.12 184.457 450.791C184.669 450.461 185.283 450.031 186.299 449.502L197.614 443.603ZM191.944 440.659C190.302 441.515 188.863 442.42 187.626 443.374C186.389 444.328 185.534 445.173 185.06 445.91C184.587 446.646 184.67 447.003 185.309 446.979C185.96 446.936 187.107 446.486 188.748 445.63L195.608 442.055L196.897 440.049L190.096 443.594C189.08 444.124 188.672 444.233 188.871 443.923C189.083 443.594 189.697 443.164 190.713 442.634L196.752 439.486C197.768 438.957 198.619 438.603 199.304 438.426C200.029 438.229 200.735 438.061 201.422 437.922C202.176 437.799 203.028 437.606 203.976 437.344C204.963 437.061 206.258 436.502 207.861 435.667L212.317 433.344C213.958 432.488 215.397 431.583 216.634 430.629C217.872 429.675 218.727 428.83 219.2 428.093C219.674 427.357 219.585 427.01 218.933 427.053C218.294 427.077 217.154 427.517 215.512 428.373L210.236 431.123L208.946 433.129L214.164 430.409C215.18 429.879 215.582 429.779 215.371 430.109C215.171 430.419 214.564 430.839 213.547 431.369L209.15 433.661C208.134 434.191 207.257 434.564 206.52 434.781C205.796 434.978 205.096 435.136 204.422 435.256C203.655 435.398 202.777 435.611 201.79 435.893C200.815 436.157 199.565 436.686 198.041 437.48L191.944 440.659ZM213.268 424.587L211.978 426.593L219.014 422.925C220.655 422.069 222.088 421.174 223.313 420.239C224.55 419.285 225.405 418.44 225.879 417.703C226.364 416.947 226.288 416.581 225.649 416.605C225.01 416.629 223.87 417.069 222.228 417.925L193.735 432.778L192.446 434.784L195.084 433.409L195.046 433.467C194.046 434.053 193.191 434.615 192.482 435.152C191.812 435.669 191.359 436.111 191.122 436.48C190.811 436.964 190.984 437.118 191.643 436.943C192.341 436.746 193.472 436.241 195.035 435.426L203.184 431.177C204.2 430.647 205.085 430.16 205.839 429.716C206.604 429.253 207.31 428.782 207.955 428.304C208.652 427.786 209.34 427.221 210.019 426.609C210.698 425.997 211.465 425.269 212.32 424.424L220.88 419.961C221.896 419.432 222.298 419.331 222.087 419.661C221.875 419.99 221.261 420.42 220.245 420.95L213.268 424.587ZM208.744 426.288C207.924 427.037 207.19 427.613 206.542 428.016C205.945 428.379 205.099 428.845 204.005 429.416L196.793 433.175C195.777 433.705 195.375 433.805 195.587 433.475C195.799 433.146 196.413 432.716 197.429 432.187L208.744 426.288ZM205.541 419.506C203.899 420.362 202.454 421.276 201.204 422.25C199.955 423.223 199.075 424.107 198.564 424.902C198.053 425.697 198.117 426.082 198.756 426.058C199.395 426.034 200.536 425.595 202.177 424.739L211.675 419.788L213.039 417.665L203.776 422.494C202.721 423.044 202.299 423.155 202.511 422.825C202.71 422.515 203.337 422.085 204.393 421.535L211.838 417.653C213.363 416.859 214.657 416.281 215.721 415.919C216.784 415.558 217.823 415.236 218.837 414.952C219.944 414.646 221.147 414.27 222.447 413.824C223.786 413.358 225.491 412.585 227.563 411.505L233.367 408.479C235.009 407.623 236.454 406.709 237.704 405.735C238.953 404.762 239.833 403.878 240.344 403.083C240.842 402.308 240.772 401.932 240.133 401.956C239.506 401.96 238.372 402.39 236.731 403.246L229.051 407.25L227.668 409.401L235.113 405.52C236.169 404.97 236.597 404.85 236.397 405.16C236.186 405.489 235.552 405.929 234.497 406.479L228.927 409.383C227.364 410.198 226.05 410.786 224.986 411.147C223.922 411.508 222.883 411.831 221.869 412.115C220.763 412.421 219.54 412.807 218.201 413.273C216.914 413.7 215.254 414.442 213.221 415.502L205.541 419.506ZM241.992 396.093L241.057 397.546L203.946 416.893L202.582 419.015L239.693 399.669L238.759 401.122L242.687 399.074L245.92 394.045L241.992 396.093ZM209.288 408.582L207.812 410.879L218.098 405.671L217.425 406.718L206.84 412.391L205.513 414.455L247.449 391.665L249.337 388.729L209.288 408.582ZM221.97 403.711L233.684 397.797L242.697 393.176L242.66 393.234L233.498 398.088L221.409 404.583L221.97 403.711ZM229.675 394.878C230.222 394.592 230.568 394.438 230.714 394.413C230.86 394.389 230.876 394.464 230.764 394.638L230.447 395.133L211.627 404.943L210.263 407.066L251.302 385.671L253.003 383.026C253.563 382.154 253.57 381.718 253.024 381.72C252.477 381.721 251.324 382.18 249.565 383.097L238.895 388.66C237.566 389.353 236.526 389.94 235.774 390.422C235.074 390.864 234.425 391.39 233.825 391.999L233.708 392.06C233.682 391.777 233.374 391.751 232.784 391.981C232.246 392.171 231.313 392.613 229.984 393.305L218.903 399.082C217.887 399.612 216.994 400.071 216.225 400.459C215.495 400.826 214.73 401.167 213.931 401.481L213.814 401.542L212.431 403.693C213.267 403.321 214.064 402.951 214.821 402.583C215.578 402.214 216.503 401.744 217.598 401.174L229.675 394.878ZM247.908 385.372C248.885 384.863 249.268 384.773 249.056 385.103L248.738 385.597L234.433 393.054L234.751 392.56C234.863 392.386 235.042 392.209 235.287 392.029C235.532 391.85 235.928 391.618 236.476 391.332L247.908 385.372ZM255.056 375.768L254.122 377.222L217.011 396.568L215.646 398.69L252.758 379.344L251.823 380.797L255.751 378.75L258.984 373.72L255.056 375.768ZM227.346 385.583C225.705 386.439 224.259 387.353 223.01 388.327C221.773 389.281 220.899 390.156 220.388 390.95C219.877 391.745 219.935 392.14 220.562 392.135C221.201 392.112 222.341 391.672 223.982 390.816L260.097 371.989L261.461 369.867L225.581 388.572C224.526 389.122 224.104 389.232 224.316 388.902C224.528 388.573 225.161 388.133 226.217 387.583L262.097 368.878L263.461 366.756L227.346 385.583ZM249.786 369.11C248.144 369.965 246.743 370.831 245.582 371.707C244.473 372.543 243.62 373.426 243.022 374.356L242.685 374.879L225.038 384.079L223.674 386.201L264.714 364.807L266.414 362.161C267.012 361.231 267.006 360.796 266.395 360.857C265.797 360.898 264.657 361.357 262.977 362.233L249.786 369.11ZM261.319 364.508C261.867 364.223 262.213 364.068 262.359 364.044C262.543 363.999 262.58 364.064 262.467 364.238L262.15 364.732L246.672 372.801L246.99 372.307C247.102 372.132 247.281 371.956 247.526 371.776C247.771 371.597 248.167 371.364 248.714 371.079L261.319 364.508ZM272.993 351.927L235.882 371.273L236.685 370.023L232.757 372.071L230.589 375.443L271.629 354.049L272.993 351.927ZM242.162 362.534C240.52 363.39 239.075 364.304 237.825 365.278C236.588 366.232 235.714 367.107 235.204 367.901C234.705 368.676 234.763 369.072 235.377 369.086C236.004 369.082 237.138 368.652 238.779 367.796L269.969 351.536C271.611 350.681 273.056 349.766 274.306 348.792C275.568 347.8 276.454 346.906 276.965 346.111C277.463 345.336 277.393 344.96 276.754 344.984C276.127 344.988 274.993 345.419 273.352 346.274L242.162 362.534ZM271.734 348.548C272.79 347.998 273.218 347.878 273.018 348.188C272.806 348.517 272.173 348.957 271.118 349.507L240.397 365.522C239.342 366.073 238.92 366.183 239.132 365.853C239.331 365.543 239.958 365.113 241.014 364.563L271.734 348.548ZM280.893 339.636L243.782 358.982L244.586 357.732L240.658 359.78L238.49 363.152L279.529 341.758L280.893 339.636Z" fill="black"/>
<path d="M267.99 451.182L262.945 459.031L318.474 430.74L331.298 424.133L331.223 424.249L318.25 431.089L261.45 461.357L256.404 469.207L336.913 428.86L341.211 422.174L286.256 450.784L272.068 458.18L272.142 458.064L286.48 450.435L342.295 420.487L346.257 414.324L292.086 441.713L278.048 448.877L278.122 448.761L292.348 441.306L347.34 412.638L351.452 406.242L267.99 451.182ZM305.118 420.468L291.165 427.742C287.022 429.902 283.443 432.154 280.429 434.499C277.493 436.803 275.451 438.846 274.305 440.63C273.159 442.413 273.307 443.315 274.748 443.337C276.267 443.318 279.099 442.229 283.242 440.069L325.688 417.941C329.753 415.822 333.292 413.59 336.307 411.246C339.346 408.862 341.439 406.779 342.585 404.996C343.731 403.213 343.532 402.35 341.988 402.408C340.547 402.386 337.754 403.455 333.611 405.614L309.457 418.207L305.121 424.951L286.243 434.793C285.071 435.404 284.609 435.516 284.858 435.128C285.107 434.741 285.818 434.241 286.991 433.63L301.53 426.05L305.118 420.468ZM330.61 410.891C331.782 410.28 332.244 410.168 331.995 410.555C331.746 410.943 331.035 411.442 329.862 412.054L315.674 419.45L316.422 418.287L330.61 410.891ZM332.585 395.082L328.997 400.664L340.723 394.552C344.866 392.392 348.393 390.179 351.304 387.914C354.319 385.569 356.399 383.506 357.545 381.722C358.691 379.939 358.505 379.057 356.985 379.076C355.491 379.056 352.711 380.106 348.646 382.225L294.005 410.71L290.417 416.292L298.86 411.891L298.785 412.007C295.69 413.749 293.161 415.338 291.199 416.773C289.237 418.208 287.92 419.449 287.247 420.496C286.599 421.504 286.946 421.812 288.289 421.422C289.632 421.031 292.179 419.858 295.931 417.902L312.816 409.1C315.005 407.959 316.941 406.846 318.626 405.762C320.414 404.598 322.002 403.46 323.392 402.349C324.885 401.158 326.245 399.972 327.472 398.792C328.802 397.531 330.13 396.233 331.457 394.897L345.644 387.501C346.817 386.89 347.279 386.778 347.029 387.166C346.78 387.553 346.069 388.053 344.897 388.664L332.585 395.082ZM321.959 399.849C321.166 400.597 320.055 401.395 318.627 402.243C317.223 403.052 315.818 403.823 314.411 404.557L301.161 411.464C300.066 412.035 299.644 412.126 299.893 411.738C300.142 411.351 300.853 410.851 302.025 410.24L321.959 399.849ZM355.826 371.661C356.999 371.05 357.461 370.938 357.211 371.325C356.962 371.713 356.251 372.213 355.079 372.824L299.852 401.614L296.264 407.196L363.099 372.354L366.687 366.772L361.997 369.217L361.954 369.162C366.027 366.627 368.562 364.584 369.558 363.033C370.281 361.909 369.761 361.626 368 362.183C366.341 362.661 363.284 364.062 358.828 366.385L343.585 374.331L339.997 379.913L355.826 371.661ZM340.517 365.399L326.563 372.673C322.42 374.833 318.842 377.085 315.827 379.429C312.891 381.733 310.85 383.777 309.703 385.56C308.557 387.343 308.705 388.246 310.146 388.268C311.666 388.249 314.497 387.159 318.64 385L361.086 362.872C365.151 360.753 368.691 358.521 371.705 356.176C374.744 353.793 376.837 351.709 377.983 349.926C379.129 348.143 378.93 347.28 377.386 347.338C375.945 347.316 373.153 348.385 369.01 350.545L344.855 363.137L340.52 369.882L321.641 379.723C320.469 380.334 320.007 380.446 320.256 380.059C320.506 379.671 321.216 379.172 322.389 378.56L336.929 370.981L340.517 365.399ZM366.008 355.821C367.18 355.21 367.642 355.098 367.393 355.486C367.144 355.873 366.433 356.373 365.26 356.984L351.072 364.38L351.82 363.218L366.008 355.821ZM398.238 322.539L396.743 324.865L371.416 338.068L372.724 336.033L362.171 341.535L360.863 343.57L325.218 362.152L321.48 367.967L403.559 325.178L408.791 317.038L398.238 322.539ZM337.748 342.658L333.637 349.054L352.994 339.194L351.948 340.823L332.142 351.38L328.405 357.194L412.539 311.208L417.771 303.067L337.748 342.658ZM363.435 333.868L388.032 321.316L402.107 314.094L402.033 314.21L387.733 321.781L362.613 335.147L363.435 333.868ZM391.107 304.403L347.84 326.959L344.102 332.773L348.792 330.328L348.835 330.383C346.838 331.631 345.196 332.77 343.909 333.802C342.622 334.834 341.754 335.698 341.306 336.396C340.608 337.481 341.129 337.802 342.869 337.359C344.688 336.875 347.669 335.553 351.812 333.393L409.501 303.319C413.566 301.2 417.118 298.949 420.157 296.565C423.222 294.143 425.352 292.002 426.548 290.141C427.744 288.281 427.582 287.36 426.063 287.379C424.646 287.318 421.867 288.367 417.724 290.527L398.846 300.369L395.108 306.183L414.572 296.036C415.745 295.425 416.207 295.313 415.958 295.701C415.708 296.088 414.997 296.588 413.825 297.199L354.494 328.129C353.321 328.74 352.86 328.852 353.109 328.464C353.358 328.077 354.069 327.577 355.241 326.966L376.816 315.719L376.443 316.3L386.996 310.799L391.107 304.403ZM401.58 288.109L358.313 310.665L354.576 316.479L359.266 314.034L359.308 314.089C357.311 315.337 355.669 316.476 354.382 317.508C353.095 318.54 352.228 319.404 351.779 320.102C351.081 321.187 351.603 321.508 353.343 321.065C355.161 320.581 358.142 319.259 362.285 317.099L419.975 287.025C424.04 284.906 427.592 282.655 430.631 280.272C433.695 277.849 435.825 275.708 437.021 273.847C438.217 271.987 438.056 271.066 436.536 271.085C435.12 271.024 432.34 272.074 428.197 274.233L409.319 284.075L405.582 289.889L425.046 279.742C426.219 279.131 426.68 279.019 426.431 279.407C426.182 279.794 425.471 280.294 424.299 280.905L364.967 311.835C363.795 312.446 363.333 312.558 363.582 312.171C363.832 311.783 364.542 311.283 365.715 310.672L387.29 299.425L386.916 300.006L397.469 294.505L401.58 288.109ZM380.982 288.013C376.839 290.173 373.247 292.444 370.208 294.828C367.247 297.171 365.168 299.272 363.972 301.133C362.776 302.993 362.887 303.954 364.303 304.015C365.797 304.035 368.616 302.965 372.759 300.805L430.449 270.731C434.514 268.612 438.066 266.36 441.105 263.977C444.169 261.555 446.299 259.413 447.495 257.553C448.691 255.692 448.53 254.771 447.01 254.79C445.594 254.729 442.814 255.779 438.671 257.939L380.982 288.013ZM435.52 263.448C436.693 262.836 437.154 262.725 436.905 263.112C436.656 263.5 435.945 263.999 434.772 264.611L375.91 295.296C374.738 295.907 374.276 296.019 374.525 295.631C374.775 295.244 375.485 294.744 376.658 294.133L435.52 263.448ZM449.852 242.243L447.983 245.15L376.458 282.437L372.72 288.252L444.246 250.964L442.377 253.872L452.93 248.37L460.405 236.741L449.852 242.243ZM400.723 257.301C396.58 259.461 392.989 261.732 389.95 264.116C386.988 266.458 384.91 268.56 383.714 270.421C382.518 272.281 382.628 273.242 384.044 273.303C385.539 273.323 388.358 272.253 392.501 270.093L409.151 261.413L412.888 255.598L395.652 264.584C394.479 265.195 394.018 265.307 394.267 264.919C394.516 264.532 395.227 264.032 396.399 263.421L410.001 256.33C412.502 255.026 414.753 254.072 416.753 253.468C418.855 252.784 420.987 252.137 423.146 251.527C425.597 250.868 428.189 250.109 430.924 249.25C433.762 248.312 437.058 246.865 440.81 244.909L450.19 240.019C454.255 237.9 457.807 235.648 460.846 233.265C463.911 230.843 466.041 228.701 467.237 226.841C468.433 224.98 468.271 224.059 466.752 224.078C465.335 224.017 462.556 225.067 458.413 227.227L445.397 234.012L441.66 239.826L455.261 232.736C456.434 232.124 456.896 232.013 456.646 232.4C456.397 232.788 455.686 233.287 454.514 233.899L444.547 239.094C442.046 240.398 439.744 241.392 437.641 242.076C435.641 242.68 433.574 243.268 431.44 243.84C428.989 244.499 426.345 245.297 423.507 246.236C420.747 247.133 417.491 248.56 413.738 250.516L400.723 257.301Z" fill="black"/>
</g>
</g>
</g>
</g>
<defs>
<clipPath id="clip0_554_855">
<rect width="481" height="668" fill="white"/>
</clipPath>
</defs>
</svg>
